<svg width="20" height="20" viewBox="0 0 20 20" fill="white" xmlns="http://www.w3.org/2000/svg">
<path d="M8.76238 9.99999L0.631184 1.86879C0.289524 1.52713 0.289524 0.973002 0.631184 0.631367C0.972843 0.289707 1.52697 0.289707 1.86861 0.631367L9.99981 8.76257L18.131 0.631367C18.4727 0.289707 19.0268 0.289707 19.3684 0.631367C19.7101 0.973026 19.7101 1.52716 19.3684 1.86879L11.2372 9.99999L19.3684 18.1312C19.7101 18.4729 19.7101 19.027 19.3684 19.3686C19.0268 19.7103 18.4726 19.7103 18.131 19.3686L9.99981 11.2374L1.86861 19.3686C1.52695 19.7103 0.972819 19.7103 0.631184 19.3686C0.289524 19.027 0.289524 18.4728 0.631184 18.1312L8.76238 9.99999Z" fill="black"/>
</svg>
