<svg width="149" height="149" viewBox="0 0 149 149" fill="none" xmlns="http://www.w3.org/2000/svg">
<path d="M133.06 138.017C136.133 142.934 139.615 148.507 146.65 148.507C147.672 148.507 148.5 147.679 148.5 146.657C148.5 145.635 147.672 144.807 146.65 144.807C141.665 144.807 139.132 140.752 136.198 136.056C133.127 131.14 129.647 125.567 122.612 125.567C115.577 125.567 112.094 131.139 109.023 136.056C106.089 140.752 103.554 144.807 98.5679 144.807C93.5817 144.807 91.0469 140.752 88.1111 136.058C85.0379 131.14 81.5548 125.567 74.516 125.567C67.481 125.567 63.9977 131.139 60.9266 136.056C57.9926 140.752 55.4578 144.807 50.4716 144.807C45.4817 144.807 42.9452 140.752 40.0094 136.056C36.9362 131.14 33.4513 125.567 26.4108 125.567C19.3703 125.567 15.8854 131.139 12.8122 136.056C9.87642 140.752 7.33992 144.807 2.35 144.807C1.32745 144.807 0.500003 145.635 0.500003 146.657C0.500002 147.679 1.32745 148.507 2.35 148.507C9.39049 148.507 12.8754 142.935 15.9486 138.018C18.8844 133.322 21.4209 129.267 26.4108 129.267C31.4007 129.267 33.9372 133.322 36.873 138.018C39.9462 142.935 43.4311 148.507 50.4716 148.507C57.5085 148.507 60.9916 142.934 64.0629 138.017C66.9969 133.322 69.5317 129.267 74.5162 129.267C79.5043 129.267 82.0391 133.322 84.9749 138.019C88.048 142.935 91.5311 148.507 98.568 148.507C105.605 148.507 109.088 142.934 112.159 138.017C115.093 133.322 117.628 129.267 122.613 129.267C127.595 129.268 130.128 133.322 133.061 138.017L133.06 138.017Z" fill="#3FC5FF" fill-opacity="0.3"/>
<path d="M40.0099 104.784C36.9367 99.868 33.4518 94.2951 26.4113 94.2951C19.3708 94.2951 15.8859 99.8675 12.8127 104.784C9.87689 109.48 7.34039 113.535 2.35048 113.535C1.32792 113.535 0.500481 114.363 0.500481 115.385C0.500481 116.407 1.32792 117.235 2.35048 117.235C9.39096 117.235 12.8759 111.663 15.9491 106.746C18.8849 102.051 21.4214 97.9951 26.4113 97.9951C31.4012 97.9951 33.9377 102.05 36.8735 106.746C39.9466 111.662 43.4316 117.235 50.4721 117.235C57.509 117.235 60.9921 111.662 64.0634 106.745C66.9973 102.05 69.5321 97.9951 74.5167 97.9951C79.5047 97.9951 82.0395 102.05 84.9753 106.747C88.0485 111.662 91.5316 117.235 98.5685 117.235C105.605 117.235 109.089 111.662 112.16 106.745C115.094 102.05 117.629 97.9951 122.613 97.9951C127.596 97.9951 130.129 102.05 133.061 106.745C136.134 111.661 139.616 117.235 146.65 117.235C147.673 117.235 148.5 116.407 148.5 115.385C148.5 114.363 147.673 113.535 146.65 113.535C141.666 113.535 139.133 109.481 136.199 104.784C133.128 99.868 129.648 94.2951 122.613 94.2951C115.578 94.2951 112.095 99.8675 109.024 104.784C106.09 109.48 103.555 113.535 98.5687 113.535C93.5825 113.535 91.0477 109.481 88.1119 104.786C85.0387 99.8681 81.5556 94.2951 74.5168 94.2951C67.4817 94.2951 63.9985 99.8675 60.9273 104.784C57.9934 109.48 55.4586 113.535 50.4724 113.535C45.4825 113.535 42.9459 109.48 40.0102 104.784L40.0099 104.784Z" fill="#3FC5FF" fill-opacity="0.3"/>
<path d="M40.0099 73.5195C36.9367 68.603 33.4518 63.0301 26.4113 63.0301C19.3708 63.0301 15.8859 68.6025 12.8127 73.5195C9.87689 78.2162 7.34039 82.2709 2.35048 82.2709C1.32792 82.2709 0.500481 83.099 0.500481 84.1209C0.500481 85.1429 1.32792 85.9709 2.35048 85.9709C9.39096 85.9709 12.8759 80.3986 15.9491 75.4816C18.8849 70.7855 21.4214 66.7301 26.4113 66.7301C31.4012 66.7301 33.9377 70.7849 36.8735 75.4816C39.9466 80.3981 43.4316 85.9709 50.4721 85.9709C57.509 85.9709 60.9921 80.3975 64.0634 75.4803C66.9973 70.7849 69.5321 66.7295 74.5167 66.7295C79.5047 66.7295 82.0395 70.7855 84.9753 75.4809C88.0485 80.3975 91.5316 85.9703 98.5685 85.9703C105.605 85.9703 109.089 80.3969 112.16 75.4797C115.094 70.7843 117.629 66.7289 122.613 66.7289C127.596 66.7289 130.129 70.7836 133.061 75.4785C136.134 80.3973 139.616 85.9709 146.65 85.9709C147.673 85.9709 148.5 85.1429 148.5 84.1209C148.5 83.099 147.673 82.2709 146.65 82.2709C141.666 82.2709 139.133 78.2162 136.199 73.5195C133.128 68.603 129.648 63.0301 122.613 63.0301C115.576 63.0301 112.095 68.6025 109.024 73.5195C106.09 78.2156 103.555 82.2709 98.5687 82.2709C93.5825 82.2709 91.0477 78.2162 88.1119 73.5201C85.0387 68.6036 81.5556 63.0295 74.5168 63.0295C67.4799 63.0295 63.9985 68.6019 60.9273 73.5189C57.9934 78.2149 55.4586 82.2703 50.4724 82.2703C45.4825 82.2709 42.9459 78.2162 40.0102 73.5195L40.0099 73.5195Z" fill="#3FC5FF" fill-opacity="0.3"/>
<path d="M40.0099 42.2545C36.9367 37.338 33.4518 31.7651 26.4113 31.7651C19.3708 31.7651 15.8859 37.3375 12.8127 42.2545C9.87689 46.9506 7.34039 51.0053 2.35048 51.0053C1.32792 51.0053 0.500481 51.8333 0.500481 52.8553C0.500481 53.8773 1.32792 54.7053 2.35048 54.7053C9.39096 54.7053 12.8759 49.1329 15.9491 44.216C18.8849 39.5205 21.4214 35.4651 26.4113 35.4651C31.4012 35.4651 33.9377 39.5199 36.8735 44.216C39.9466 49.1325 43.4316 54.7053 50.4721 54.7053C57.509 54.7053 60.9921 49.1319 64.0634 44.2147C66.9973 39.5199 69.5321 35.4651 74.5167 35.4651C79.5047 35.4651 82.0395 39.5199 84.9753 44.2166C88.0485 49.1325 91.5316 54.7053 98.5685 54.7053C105.605 54.7053 109.089 49.1319 112.16 44.2147C115.094 39.5199 117.629 35.4652 122.613 35.4652C127.596 35.4652 130.129 39.5199 133.061 44.2147C136.134 49.1319 139.616 54.7053 146.65 54.7053C147.673 54.7053 148.5 53.8773 148.5 52.8553C148.5 51.8334 147.673 51.0053 146.65 51.0053C141.666 51.0053 139.133 46.9506 136.199 42.2545C133.128 37.338 129.648 31.7652 122.613 31.7652C115.578 31.7652 112.095 37.3375 109.024 42.2545C106.09 46.95 103.555 51.0053 98.5687 51.0053C93.5825 51.0053 91.0477 46.9506 88.1119 42.2557C85.0387 37.3381 81.5556 31.7651 74.5168 31.7651C67.4817 31.7651 63.9985 37.3375 60.9273 42.2545C57.9934 46.95 55.4586 51.0053 50.4724 51.0053C45.4825 51.0053 42.9459 46.9506 40.0102 42.2545L40.0099 42.2545Z" fill="#3FC5FF" fill-opacity="0.3"/>
<path d="M40.0099 10.9895C36.9367 6.07235 33.4518 0.500148 26.4113 0.500147C19.3708 0.500147 15.8859 6.0725 12.8127 10.9895C9.87689 15.6849 7.34039 19.7397 2.35048 19.7397C1.32792 19.7397 0.500481 20.5677 0.500481 21.5897C0.500481 22.6116 1.32792 23.4397 2.35048 23.4397C9.39096 23.4397 12.8759 17.8673 15.9491 12.9503C18.8849 8.25489 21.4214 4.20015 26.4113 4.20015C31.4012 4.20015 33.9377 8.25489 36.8735 12.951C39.9466 17.8675 43.4316 23.4403 50.4721 23.4403C57.509 23.4403 60.9921 17.8669 64.0634 12.9497C66.9973 8.25489 69.5321 4.20015 74.5167 4.20015C79.5047 4.20015 82.0395 8.25489 84.9753 12.9516C88.0485 17.8675 91.5316 23.4403 98.5685 23.4403C105.605 23.4403 109.089 17.8669 112.16 12.9497C115.094 8.25489 117.629 4.20015 122.613 4.20015C127.596 4.20015 130.129 8.25489 133.061 12.9497C136.134 17.8663 139.616 23.4397 146.65 23.4397C147.673 23.4397 148.5 22.6116 148.5 21.5897C148.5 20.5677 147.673 19.7397 146.65 19.7397C141.666 19.7397 139.133 15.685 136.199 10.9889C133.128 6.07235 129.648 0.500152 122.613 0.500151C115.578 0.500151 112.095 6.0725 109.024 10.9895C106.09 15.685 103.555 19.7403 98.5687 19.7403C93.5825 19.7403 91.0477 15.6856 88.1119 10.9907C85.0387 6.07251 81.5556 0.50015 74.5168 0.500149C67.4817 0.500149 63.9985 6.0725 60.9273 10.9895C57.9934 15.6849 55.4586 19.7403 50.4724 19.7403C45.4825 19.7397 42.9459 15.6849 40.0102 10.9895L40.0099 10.9895Z" fill="#3FC5FF" fill-opacity="0.3"/>
</svg>
