<svg width="149" height="149" viewBox="0 0 149 149" fill="none" xmlns="http://www.w3.org/2000/svg">
<path d="M138.017 15.9398C142.934 12.8666 148.507 9.38524 148.507 2.35031C148.507 1.32775 147.679 0.500305 146.657 0.500305C145.635 0.500305 144.807 1.32775 144.807 2.35031C144.807 7.33482 140.752 9.86778 136.056 12.8017C131.14 15.873 125.567 19.3526 125.567 26.3877C125.567 33.4228 131.139 36.906 136.056 39.9771C140.752 42.9111 144.807 45.4459 144.807 50.4321C144.807 55.4183 140.752 57.9531 136.058 60.8889C131.14 63.9621 125.567 67.4452 125.567 74.484C125.567 81.519 131.139 85.0023 136.056 88.0734C140.752 91.0074 144.807 93.5422 144.807 98.5284C144.807 103.518 140.752 106.055 136.056 108.991C131.14 112.064 125.567 115.549 125.567 122.589C125.567 129.63 131.139 133.115 136.056 136.188C140.752 139.124 144.807 141.66 144.807 146.65C144.807 147.673 145.635 148.5 146.657 148.5C147.679 148.5 148.507 147.673 148.507 146.65C148.507 139.61 142.935 136.125 138.018 133.051C133.322 130.116 129.267 127.579 129.267 122.589C129.267 117.599 133.322 115.063 138.018 112.127C142.935 109.054 148.507 105.569 148.507 98.5284C148.507 91.4915 142.934 88.0084 138.017 84.9371C133.322 82.0031 129.267 79.4683 129.267 74.4838C129.267 69.4957 133.322 66.9609 138.018 64.0251C142.935 60.952 148.507 57.4689 148.507 50.432C148.507 43.395 142.934 39.9119 138.017 36.8406C133.322 33.9067 129.267 31.3719 129.267 26.3874C129.268 21.4047 133.322 18.8717 138.017 15.9395V15.9398Z" fill="#FF3FE0" fill-opacity="0.3"/>
<path d="M104.784 108.99C99.8679 112.063 94.2951 115.548 94.2951 122.589C94.2951 129.629 99.8675 133.114 104.784 136.187C109.48 139.123 113.535 141.66 113.535 146.65C113.535 147.672 114.363 148.5 115.385 148.5C116.407 148.5 117.235 147.672 117.235 146.65C117.235 139.609 111.663 136.124 106.746 133.051C102.05 130.115 97.9951 127.579 97.9951 122.589C97.9951 117.599 102.05 115.062 106.746 112.127C111.662 109.053 117.235 105.568 117.235 98.528C117.235 91.491 111.662 88.0079 106.745 84.9366C102.05 82.0027 97.9951 79.4679 97.9951 74.4834C97.9951 69.4953 102.05 66.9605 106.747 64.0247C111.662 60.9515 117.235 57.4684 117.235 50.4315C117.235 43.3946 111.662 39.9115 106.745 36.8402C102.05 33.9062 97.9951 31.3714 97.9951 26.3869C97.9951 21.4042 102.05 18.8713 106.745 15.939C111.661 12.8659 117.235 9.38447 117.235 2.34953C117.235 1.32698 116.407 0.499535 115.385 0.499535C114.363 0.499535 113.535 1.32698 113.535 2.34953C113.535 7.33405 109.481 9.86701 104.784 12.801C99.8679 15.8723 94.2951 19.3518 94.2951 26.3869C94.2951 33.422 99.8675 36.9052 104.784 39.9764C109.48 42.9103 113.535 45.4451 113.535 50.4313C113.535 55.4176 109.481 57.9524 104.786 60.8882C99.8681 63.9613 94.2951 67.4444 94.2951 74.4832C94.2951 81.5183 99.8675 85.0015 104.784 88.0727C109.48 91.0066 113.535 93.5414 113.535 98.5276C113.535 103.518 109.48 106.054 104.784 108.99V108.99Z" fill="#FF3FE0" fill-opacity="0.3"/>
<path d="M73.5194 108.99C68.6029 112.063 63.0301 115.548 63.0301 122.589C63.0301 129.629 68.6025 133.114 73.5194 136.187C78.2161 139.123 82.2709 141.66 82.2709 146.65C82.2709 147.672 83.0989 148.5 84.1209 148.5C85.1428 148.5 85.9709 147.672 85.9709 146.65C85.9709 139.609 80.3985 136.124 75.4815 133.051C70.7855 130.115 66.7301 127.579 66.7301 122.589C66.7301 117.599 70.7848 115.062 75.4815 112.127C80.3981 109.053 85.9709 105.568 85.9709 98.528C85.9709 91.491 80.3974 88.0079 75.4803 84.9366C70.7848 82.0027 66.7295 79.4679 66.7295 74.4834C66.7295 69.4953 70.7855 66.9605 75.4809 64.0247C80.3974 60.9515 85.9703 57.4684 85.9703 50.4315C85.9703 43.3946 80.3968 39.9115 75.4797 36.8402C70.7842 33.9062 66.7289 31.3714 66.7289 26.3869C66.7289 21.4042 70.7836 18.8713 75.4784 15.939C80.3973 12.8659 85.9709 9.38447 85.9709 2.34953C85.9709 1.32698 85.1428 0.499535 84.1209 0.499535C83.0989 0.499535 82.2709 1.32698 82.2709 2.34953C82.2709 7.33405 78.2161 9.86701 73.5194 12.801C68.6029 15.8723 63.0301 19.3518 63.0301 26.3869C63.0301 33.4238 68.6025 36.9052 73.5194 39.9764C78.2155 42.9103 82.2709 45.4451 82.2709 50.4313C82.2709 55.4176 78.2161 57.9524 73.5201 60.8882C68.6035 63.9613 63.0295 67.4444 63.0295 74.4832C63.0295 81.5201 68.6018 85.0015 73.5188 88.0727C78.2149 91.0066 82.2703 93.5414 82.2703 98.5276C82.2709 103.518 78.2161 106.054 73.5194 108.99V108.99Z" fill="#FF3FE0" fill-opacity="0.3"/>
<path d="M42.2545 108.99C37.338 112.063 31.7651 115.548 31.7651 122.589C31.7651 129.629 37.3375 133.114 42.2545 136.187C46.9506 139.123 51.0053 141.66 51.0053 146.65C51.0053 147.672 51.8333 148.5 52.8553 148.5C53.8772 148.5 54.7053 147.672 54.7053 146.65C54.7053 139.609 49.1329 136.124 44.2159 133.051C39.5205 130.115 35.4651 127.579 35.4651 122.589C35.4651 117.599 39.5199 115.062 44.2159 112.127C49.1325 109.053 54.7053 105.568 54.7053 98.528C54.7053 91.491 49.1319 88.0079 44.2147 84.9366C39.5199 82.0027 35.4651 79.4679 35.4651 74.4834C35.4651 69.4953 39.5199 66.9605 44.2166 64.0247C49.1325 60.9515 54.7053 57.4684 54.7053 50.4315C54.7053 43.3946 49.1319 39.9115 44.2147 36.8402C39.5199 33.9062 35.4651 31.3714 35.4651 26.3869C35.4651 21.4042 39.5199 18.8713 44.2147 15.939C49.1319 12.8659 54.7053 9.38447 54.7053 2.34953C54.7053 1.32698 53.8772 0.499535 52.8553 0.499535C51.8333 0.499535 51.0053 1.32698 51.0053 2.34953C51.0053 7.33405 46.9506 9.86701 42.2545 12.801C37.338 15.8723 31.7651 19.3518 31.7651 26.3869C31.7651 33.422 37.3375 36.9052 42.2545 39.9764C46.9499 42.9103 51.0053 45.4451 51.0053 50.4313C51.0053 55.4176 46.9506 57.9524 42.2557 60.8882C37.3381 63.9613 31.7651 67.4444 31.7651 74.4832C31.7651 81.5183 37.3375 85.0015 42.2545 88.0727C46.9499 91.0066 51.0053 93.5414 51.0053 98.5276C51.0053 103.518 46.9506 106.054 42.2545 108.99V108.99Z" fill="#FF3FE0" fill-opacity="0.3"/>
<path d="M10.9895 108.99C6.07232 112.063 0.500122 115.548 0.500122 122.589C0.500122 129.629 6.07248 133.114 10.9895 136.187C15.6849 139.123 19.7397 141.66 19.7397 146.65C19.7397 147.672 20.5677 148.5 21.5897 148.5C22.6116 148.5 23.4397 147.672 23.4397 146.65C23.4397 139.609 17.8673 136.124 12.9503 133.051C8.25486 130.115 4.20012 127.579 4.20012 122.589C4.20012 117.599 8.25486 115.062 12.9509 112.127C17.8675 109.053 23.4403 105.568 23.4403 98.528C23.4403 91.491 17.8668 88.0079 12.9497 84.9366C8.25486 82.0027 4.20012 79.4679 4.20012 74.4834C4.20012 69.4953 8.25486 66.9605 12.9515 64.0247C17.8675 60.9515 23.4403 57.4684 23.4403 50.4315C23.4403 43.3946 17.8668 39.9115 12.9497 36.8402C8.25486 33.9062 4.20012 31.3714 4.20012 26.3869C4.20012 21.4042 8.25486 18.8713 12.9497 15.939C17.8662 12.8659 23.4397 9.38447 23.4397 2.34953C23.4397 1.32698 22.6116 0.499535 21.5897 0.499535C20.5677 0.499535 19.7397 1.32698 19.7397 2.34953C19.7397 7.33405 15.6849 9.86701 10.9889 12.801C6.07232 15.8723 0.500122 19.3518 0.500122 26.3869C0.500122 33.422 6.07248 36.9052 10.9895 39.9764C15.6849 42.9103 19.7403 45.4451 19.7403 50.4313C19.7403 55.4176 15.6855 57.9524 10.9907 60.8882C6.07248 63.9613 0.500122 67.4444 0.500122 74.4832C0.500122 81.5183 6.07248 85.0015 10.9895 88.0727C15.6849 91.0066 19.7403 93.5414 19.7403 98.5276C19.7397 103.518 15.6849 106.054 10.9895 108.99V108.99Z" fill="#FF3FE0" fill-opacity="0.3"/>
</svg>
