<svg width="111" height="87" viewBox="0 0 111 87" fill="none" xmlns="http://www.w3.org/2000/svg">
<path d="M49.35 9.67501C49.35 14.77 45.22 18.9 40.125 18.9C35.0301 18.9 30.9 14.77 30.9 9.67501C30.9 4.58004 35.0301 0.450012 40.125 0.450012C45.22 0.450012 49.35 4.58004 49.35 9.67501Z" fill="#FF6B00" fill-opacity="0.19"/>
<path d="M49.35 43.5C49.35 48.595 45.22 52.725 40.125 52.725C35.0301 52.725 30.9 48.595 30.9 43.5C30.9 38.4051 35.0301 34.275 40.125 34.275C45.22 34.275 49.35 38.4051 49.35 43.5Z" fill="#FF6B00" fill-opacity="0.19"/>
<path d="M49.35 77.325C49.35 82.42 45.22 86.55 40.125 86.55C35.0301 86.55 30.9 82.42 30.9 77.325C30.9 72.23 35.0301 68.1 40.125 68.1C45.22 68.1 49.35 72.23 49.35 77.325Z" fill="#FF6B00" fill-opacity="0.19"/>
<path d="M80.1 9.67501C80.1 14.77 75.97 18.9 70.875 18.9C65.7801 18.9 61.65 14.77 61.65 9.67501C61.65 4.58004 65.7801 0.450012 70.875 0.450012C75.97 0.450012 80.1 4.58004 80.1 9.67501Z" fill="#FF6B00" fill-opacity="0.19"/>
<path d="M18.6 77.325C18.6 82.42 14.47 86.55 9.37502 86.55C4.28006 86.55 0.150024 82.42 0.150024 77.325C0.150024 72.23 4.28006 68.1 9.37502 68.1C14.47 68.1 18.6 72.23 18.6 77.325Z" fill="#FF6B00" fill-opacity="0.19"/>
<path d="M12.45 9.67501C12.45 11.3734 11.0735 12.75 9.37505 12.75C7.67662 12.75 6.30005 11.3734 6.30005 9.67501C6.30005 7.97658 7.67662 6.60001 9.37505 6.60001C11.0735 6.60001 12.45 7.97658 12.45 9.67501Z" fill="#FF6B00" fill-opacity="0.19"/>
<path d="M12.45 43.5C12.45 45.1984 11.0735 46.575 9.37505 46.575C7.67662 46.575 6.30005 45.1984 6.30005 43.5C6.30005 41.8016 7.67662 40.425 9.37505 40.425C11.0735 40.425 12.45 41.8016 12.45 43.5Z" fill="#FF6B00" fill-opacity="0.19"/>
<path d="M73.95 77.325C73.95 79.0234 72.5735 80.4 70.875 80.4C69.1766 80.4 67.8 79.0234 67.8 77.325C67.8 75.6266 69.1766 74.25 70.875 74.25C72.5735 74.25 73.95 75.6266 73.95 77.325Z" fill="#FF6B00" fill-opacity="0.19"/>
<path d="M104.7 43.5C104.7 45.1984 103.323 46.575 101.625 46.575C99.9266 46.575 98.55 45.1984 98.55 43.5C98.55 41.8016 99.9266 40.425 101.625 40.425C103.323 40.425 104.7 41.8016 104.7 43.5Z" fill="#FF6B00" fill-opacity="0.19"/>
<path d="M104.7 77.325C104.7 79.0234 103.323 80.4 101.625 80.4C99.9266 80.4 98.55 79.0234 98.55 77.325C98.55 75.6266 99.9266 74.25 101.625 74.25C103.323 74.25 104.7 75.6266 104.7 77.325Z" fill="#FF6B00" fill-opacity="0.19"/>
<path d="M80.1 43.5C80.1 48.595 75.97 52.725 70.875 52.725C65.7801 52.725 61.65 48.595 61.65 43.5C61.65 38.4051 65.7801 34.275 70.875 34.275C75.97 34.275 80.1 38.4051 80.1 43.5Z" fill="#FF6B00" fill-opacity="0.19"/>
<path d="M110.85 9.67501C110.85 14.77 106.72 18.9 101.625 18.9C96.5301 18.9 92.4 14.77 92.4 9.67501C92.4 4.58004 96.5301 0.450012 101.625 0.450012C106.72 0.450012 110.85 4.58004 110.85 9.67501Z" fill="#FF6B00" fill-opacity="0.19"/>
</svg>
