<svg width="66" height="108" viewBox="0 0 66 108" fill="none" xmlns="http://www.w3.org/2000/svg">
<path d="M57.6 4.9C57.6 7.16457 55.7646 9 53.5 9C51.2355 9 49.4 7.16457 49.4 4.9C49.4 2.63543 51.2355 0.799999 53.5 0.799999C55.7646 0.799999 57.6 2.63543 57.6 4.9Z" fill="#FF7A00" fill-opacity="0.33"/>
<path d="M57.6 95.1C57.6 97.3646 55.7646 99.2 53.5 99.2C51.2355 99.2 49.4 97.3646 49.4 95.1C49.4 92.8354 51.2355 91 53.5 91C55.7646 91 57.6 92.8354 57.6 95.1Z" fill="#FF7A00" fill-opacity="0.33"/>
<path d="M16.6 4.9C16.6 7.16457 14.7646 9 12.5 9C10.2355 9 8.40002 7.16457 8.40002 4.9C8.40002 2.63543 10.2355 0.799999 12.5 0.799999C14.7646 0.799999 16.6 2.63543 16.6 4.9Z" fill="#FF7A00" fill-opacity="0.33"/>
<path d="M65.8 50C65.8 56.7933 60.2933 62.3 53.5 62.3C46.7067 62.3 41.2 56.7933 41.2 50C41.2 43.2067 46.7067 37.7 53.5 37.7C60.2933 37.7 65.8 43.2067 65.8 50Z" fill="#FF7A00" fill-opacity="0.33"/>
<path d="M24.8 50C24.8 56.7933 19.2933 62.3 12.5 62.3C5.70672 62.3 0.200012 56.7933 0.200012 50C0.200012 43.2067 5.70672 37.7 12.5 37.7C19.2933 37.7 24.8 43.2067 24.8 50Z" fill="#FF7A00" fill-opacity="0.33"/>
<path d="M24.8 95.1C24.8 101.893 19.2933 107.4 12.5 107.4C5.70672 107.4 0.200012 101.893 0.200012 95.1C0.200012 88.3067 5.70672 82.8 12.5 82.8C19.2933 82.8 24.8 88.3067 24.8 95.1Z" fill="#FF7A00" fill-opacity="0.33"/>
</svg>
