<svg width="28" height="28" viewBox="0 0 28 28" fill="none" xmlns="http://www.w3.org/2000/svg">
<path fill-rule="evenodd" clip-rule="evenodd" d="M20 14C20 11.7909 21.7909 10 24 10V10C26.2091 10 28 11.7909 28 14V14C28 16.2091 26.2091 18 24 18V18C21.7909 18 20 16.2091 20 14V14Z" fill="#979797"/>
<path fill-rule="evenodd" clip-rule="evenodd" d="M0 14C0 11.7909 1.79086 10 4 10V10C6.20914 10 8 11.7909 8 14V14C8 16.2091 6.20914 18 4 18V18C1.79086 18 0 16.2091 0 14V14Z" fill="#979797"/>
<path fill-rule="evenodd" clip-rule="evenodd" d="M10 24C10 21.7909 11.7909 20 14 20V20C16.2091 20 18 21.7909 18 24V24C18 26.2091 16.2091 28 14 28V28C11.7909 28 10 26.2091 10 24V24Z" fill="#6D6D6D"/>
<path fill-rule="evenodd" clip-rule="evenodd" d="M10 4C10 1.79086 11.7909 0 14 0V0C16.2091 0 18 1.79086 18 4V4C18 6.20914 16.2091 8 14 8V8C11.7909 8 10 6.20914 10 4V4Z" fill="#6D6D6D"/>
</svg>
